<svg id="Capa_1" data-name="Capa 1" xmlns="http://www.w3.org/2000/svg" viewBox="0 0 659.13 121.53"><defs><style>.cls-1,.cls-2{fill:#fff;opacity:0.8;}.cls-2{stroke:#a8e1c5;stroke-miterlimit:10;stroke-width:25px;}</style></defs><path class="cls-1" d="M184.89,468.71,201,459.42a23.92,23.92,0,0,1,23.91,0L241,468.71a23.9,23.9,0,0,1,12,20.71V508a23.89,23.89,0,0,1-12,20.7L224.89,538A23.92,23.92,0,0,1,201,538l-16.09-9.29a23.9,23.9,0,0,1-12-20.7V489.42A23.9,23.9,0,0,1,184.89,468.71Z" transform="translate(-172.93 -437.94)"/><path class="cls-2" d="M372.93,465.82,394,453.65a23.92,23.92,0,0,1,23.91,0L439,465.82a23.92,23.92,0,0,1,12,20.71v24.35a23.9,23.9,0,0,1-12,20.71l-21.09,12.18a23.92,23.92,0,0,1-23.91,0l-21.09-12.18A23.92,23.92,0,0,1,361,510.88V486.53A23.93,23.93,0,0,1,372.93,465.82Z" transform="translate(-172.93 -437.94)"/><path class="cls-1" d="M571,468.71l16.09-9.29a23.92,23.92,0,0,1,23.91,0l16.09,9.29A23.92,23.92,0,0,1,639,489.42V508a23.91,23.91,0,0,1-11.95,20.7L611,538a23.92,23.92,0,0,1-23.91,0L571,528.7A23.9,23.9,0,0,1,559,508V489.42A23.9,23.9,0,0,1,571,468.71Z" transform="translate(-172.93 -437.94)"/><path class="cls-1" d="M764,468.71l16.09-9.29a23.92,23.92,0,0,1,23.91,0l16.09,9.29a23.9,23.9,0,0,1,12,20.71V508a23.9,23.9,0,0,1-12,20.7L804,538a23.92,23.92,0,0,1-23.91,0L764,528.7A23.89,23.89,0,0,1,752.07,508V489.42A23.9,23.9,0,0,1,764,468.71Z" transform="translate(-172.93 -437.94)"/></svg>