<svg id="Capa_1" data-name="Capa 1" xmlns="http://www.w3.org/2000/svg" viewBox="0 0 319.9 352.23"><defs><style>.cls-1{fill:#40acff;}.cls-2{fill:#fff;}</style></defs><path class="cls-1" d="M632.28,391.67l-104.62-60.4a55.49,55.49,0,0,0-55.33,0l-104.62,60.4a55.51,55.51,0,0,0-27.66,47.92V560.4a55.48,55.48,0,0,0,27.66,47.91l104.62,60.41a55.48,55.48,0,0,0,55.33,0l104.62-60.4A55.5,55.5,0,0,0,660,560.4V439.59A55.5,55.5,0,0,0,632.28,391.67ZM635,560.4a30.4,30.4,0,0,1-15.17,26.26L515.16,647.07a30.42,30.42,0,0,1-30.33,0L380.21,586.66a30.41,30.41,0,0,1-15.16-26.26V439.59a30.44,30.44,0,0,1,15.16-26.27l104.62-60.4a30.42,30.42,0,0,1,30.33,0l88.75,51.24,15.87,9.16A30.43,30.43,0,0,1,635,439.59Z" transform="translate(-340.05 -323.89)"/><path class="cls-1" d="M525.42,508s-6.85,41.75-27.54,57.93c-19.91,15.57-77.08,12.27-90.5,11.26h0a6.57,6.57,0,0,1-5.89-7.57c.22-1.14.47-2.62.79-4.34a33,33,0,0,1,7.89-15.81l26.33-29.6a3.47,3.47,0,0,0,.15-4.41,3.41,3.41,0,0,0-4.31-.93l-13.95,7.32a2.78,2.78,0,0,1-3.95-3.37c5.1-14.32,11.73-27.59,19.91-33.94,20.7-16.17,62.88-12.73,62.88-12.73Z" transform="translate(-340.05 -323.89)"/><path class="cls-2" d="M549,475.88l-3.08,2.41,10.19,13a5.75,5.75,0,0,1-4.42,9.26l-17.21.32-28.3-36.15,4.48-16.61a5.77,5.77,0,0,1,4.41-4.13,5.71,5.71,0,0,1,5.67,2.08l11,14.14,3.12-2.44,25.82-20.09,43.16-33.56,15.87,9.16a30.35,30.35,0,0,1,5,3.64L574.85,455.8Z" transform="translate(-340.05 -323.89)"/></svg>