<svg id="Capa_1" data-name="Capa 1" xmlns="http://www.w3.org/2000/svg" viewBox="0 0 333.99 365.79"><defs><style>.cls-1{fill:#fff;}</style></defs><path class="cls-1" d="M667,440.56V559.44a64.2,64.2,0,0,1-32,55.46L532,674.34a64.23,64.23,0,0,1-64,0L365,614.9a64.2,64.2,0,0,1-32-55.46V440.56a64.2,64.2,0,0,1,32-55.46l103-59.44a64.23,64.23,0,0,1,64,0L635,385.1A64.2,64.2,0,0,1,667,440.56ZM358,559.44a39.14,39.14,0,0,0,19.51,33.81l103,59.44a39.16,39.16,0,0,0,39,0l103-59.44A39.16,39.16,0,0,0,642,559.44V440.56a39.16,39.16,0,0,0-19.51-33.81l-103-59.44a39.16,39.16,0,0,0-39,0l-103,59.44A39.14,39.14,0,0,0,358,440.56Z" transform="translate(-333.01 -317.11)"/></svg>