<?xml version="1.0" encoding="utf-8"?>
<!-- Generator: Adobe Illustrator 25.2.1, SVG Export Plug-In . SVG Version: 6.00 Build 0)  -->
<svg version="1.1" id="Capa_1" xmlns="http://www.w3.org/2000/svg" xmlns:xlink="http://www.w3.org/1999/xlink" x="0px" y="0px"
	 viewBox="0 0 243.6 267.6" style="enable-background:new 0 0 243.6 267.6;" xml:space="preserve">
<style type="text/css">
	.st0{fill:#192A3F;}
</style>
<path class="st0" d="M221.5,50.7L143.9,5.9C130.2-2,113.4-2,99.7,5.9L22.1,50.7C8.4,58.6,0,73.2,0,89v89.6
	c0,15.8,8.4,30.4,22.1,38.3l77.6,44.8c13.7,7.9,30.5,7.9,44.2,0l77.6-44.8c13.7-7.9,22.1-22.5,22.1-38.3V89
	C243.6,73.2,235.2,58.6,221.5,50.7z M185.9,157.4c0,8.3-4.4,16-11.6,20.1l-40.8,23.6c-7.2,4.1-16.1,4.1-23.2,0l-40.8-23.6
	c-7.2-4.2-11.6-11.8-11.6-20.1v-47.1c0-8.3,4.4-16,11.6-20.1l40.8-23.6c7.2-4.1,16.1-4.1,23.2,0l40.8,23.6
	c7.2,4.2,11.6,11.8,11.6,20.1V157.4z"/>
</svg>
